HIERARCHY
ROOT Hips
{
	OFFSET	0.00	0.00	0.00
	CHANNELS 6 Xposition Yposition Zposition Zrotation Xrotation Yrotation
	JOINT LeftUpLeg
	{
		OFFSET	 0.126116	-0.014019	-0.065224
		CHANNELS 3 Zrotation Xrotation Yrotation
		JOINT LeftLeg
		{
			OFFSET	 0.000000	 0.000000	 0.569914
			CHANNELS 3 Zrotation Xrotation Yrotation
			JOINT LeftFoot
			{
				OFFSET	 0.000000	 0.000000	 0.544423
				CHANNELS 3 Zrotation Xrotation Yrotation
				JOINT LeftToeBase
				{
					OFFSET	 0.000000	 0.000000	 0.207117
					CHANNELS 3 Zrotation Xrotation Yrotation
					End Site
					{
						OFFSET	 0.000000	 0.000000	 0.207117
					}
				}
			}
		}
	}
	JOINT RightUpLeg
	{
		OFFSET	-0.124023	-0.008373	-0.065224
		CHANNELS 3 Zrotation Xrotation Yrotation
		JOINT RightLeg
		{
			OFFSET	 0.000000	 0.000000	 0.570047
			CHANNELS 3 Zrotation Xrotation Yrotation
			JOINT RightFoot
			{
				OFFSET	 0.000000	 0.000000	 0.544354
				CHANNELS 3 Zrotation Xrotation Yrotation
				JOINT RightToeBase
				{
					OFFSET	 0.000000	 0.000000	 0.207540
					CHANNELS 3 Zrotation Xrotation Yrotation
					End Site
					{
						OFFSET	 0.000000	 0.000000	 0.207540
					}
				}
			}
		}
	}
	JOINT Spine
	{
		OFFSET	 0.000184	-0.007763	 0.117403
		CHANNELS 3 Zrotation Xrotation Yrotation
		JOINT Spine1
		{
			OFFSET	 0.000000	 0.000000	 0.137269
			CHANNELS 3 Zrotation Xrotation Yrotation
			JOINT Spine2
			{
				OFFSET	 0.000000	 0.000000	 0.156879
				CHANNELS 3 Zrotation Xrotation Yrotation
				JOINT LeftShoulder
				{
					OFFSET	 0.080501	-0.002496	 0.160144
					CHANNELS 3 Zrotation Xrotation Yrotation
					JOINT LeftArm
					{
						OFFSET	 0.000000	 0.000000	 0.164363
						CHANNELS 3 Zrotation Xrotation Yrotation
						JOINT LeftForeArm
						{
							OFFSET	 0.000000	 0.000000	 0.364576
							CHANNELS 3 Zrotation Xrotation Yrotation
							JOINT LeftHand
							{
								OFFSET	 0.000000	 0.000000	 0.360812
								CHANNELS 3 Zrotation Xrotation Yrotation
								JOINT LeftHandIndex1
								{
									OFFSET	 0.000000	 0.000000	 0.086006
									CHANNELS 3 Zrotation Xrotation Yrotation
									JOINT LeftHandIndex2
									{
										OFFSET	 0.000000	 0.000000	 0.047236
										CHANNELS 3 Zrotation Xrotation Yrotation
										JOINT LeftHandIndex3
										{
											OFFSET	-0.004284	-0.000551	 0.038166
											CHANNELS 3 Zrotation Xrotation Yrotation
											End Site
											{
												OFFSET	-0.004284	-0.000551	 0.038166
											}
										}
									}
								}
							}
						}
					}
				}
				JOINT Neck
				{
					OFFSET	 0.000000	 0.000000	 0.176489
					CHANNELS 3 Zrotation Xrotation Yrotation
					JOINT Head
					{
						OFFSET	 0.000000	-0.001747	 0.077940
						CHANNELS 3 Zrotation Xrotation Yrotation
						End Site
						{
							OFFSET	 0.000000	-0.001747	 0.077940
						}
					}
				}
				JOINT RightShoulder
				{
					OFFSET	-0.080363	 0.000306	 0.159706
					CHANNELS 3 Zrotation Xrotation Yrotation
					JOINT RightArm
					{
						OFFSET	 0.000000	 0.000000	 0.164196
						CHANNELS 3 Zrotation Xrotation Yrotation
						JOINT RightForeArm
						{
							OFFSET	 0.000000	 0.000000	 0.365611
							CHANNELS 3 Zrotation Xrotation Yrotation
							JOINT RightHand
							{
								OFFSET	 0.000000	 0.000000	 0.360648
								CHANNELS 3 Zrotation Xrotation Yrotation
								JOINT RightHandIndex1
								{
									OFFSET	 0.000000	 0.000000	 0.069977
									CHANNELS 3 Zrotation Xrotation Yrotation
									JOINT RightHandIndex2
									{
										OFFSET	 0.000000	 0.000000	 0.052305
										CHANNELS 3 Zrotation Xrotation Yrotation
										JOINT RightHandIndex3
										{
											OFFSET	 0.009002	-0.000782	 0.042196
											CHANNELS 3 Zrotation Xrotation Yrotation
											End Site
											{
												OFFSET	 0.009002	-0.000782	 0.042196
											}
										}
									}
								}
							}
						}
					}
				}
			}
		}
	}
}
MOTION
Frames:    7
Frame Time: 0.03333334
-0.058719	-2.233645	 1.201303	 4.772400	-1.528667	-3.703901	-7.377078	-13.430430	-169.781100	 0.763887	-38.494930	 0.255933	 45.029720	 80.020160	-48.730710	-2.370169	 31.486190	-0.067009	 3.743925	-29.094360	-174.648500	 10.869940	-52.638830	 9.288895	 22.986580	 75.811810	-19.932380	 2.358549	 33.063320	 0.104688	 1.832467	 8.577014	 0.846987	 1.920322	 3.838441	 3.451468	-9.368921	-3.647926	-4.516412	-93.891930	 58.963860	 175.487400	 25.125740	 45.175240	-25.841820	-1.325829	-2.033247	-18.598670	-1.702087	-25.788060	-7.716782	-4.869164	 19.246250	-2.786507	-3.885839	 21.417590	 2.207131	-4.808260	 5.545473	 0.146969	-0.089294	-5.059127	 0.177317	-11.218700	 1.133967	 1.928847	 89.793560	 61.630940	-179.972800	-19.731320	 51.892790	 7.479774	-1.334106	-3.212142	 16.540530	-4.706406	-11.372030	 0.634713	 6.296489	 25.149850	-0.549913	 1.847368	 45.007050	-6.959101	 0.488367	 24.442210	 3.587519
-0.059462	-2.249281	 1.201055	 5.651155	-0.891060	-3.724100	-8.235924	-13.310000	-169.859000	 1.198649	-38.271930	 0.523985	 44.726260	 80.076220	-48.766260	-2.368649	 31.739550	-0.072748	 1.640637	-30.823150	-174.324400	 11.725380	-50.584870	 9.705823	 46.667100	 80.594400	-45.066800	 2.359000	 32.996600	 0.103138	 1.304016	 8.238047	 0.686285	 1.942881	 3.293819	 3.699230	-9.596380	-3.351671	-4.567926	-94.088230	 59.018520	 175.061500	 25.356240	 44.095400	-26.204400	-1.887122	-2.022123	-20.271260	-1.471265	-25.997930	-8.864847	-4.864859	 19.362280	-2.795292	-3.875746	 21.546670	 2.196882	-4.805069	 5.583063	 0.144774	-0.043023	-5.102005	 0.225481	-11.309900	 1.234187	 1.776319	 89.723100	 61.717400	 179.858900	-19.185180	 52.319900	 6.434694	-1.827134	-3.340457	 16.429820	-4.994412	-10.721590	 0.368615	 6.279157	 23.753650	-0.548800	 2.018846	 43.599500	-7.111603	 0.759600	 23.243210	 3.451729
-0.060115	-2.271447	 1.200346	 6.327056	-0.036348	-3.959582	-8.852434	-12.932760	-169.757700	 1.490912	-37.770090	 0.697195	 45.957910	 80.375140	-50.242350	-2.366388	 32.105430	-0.081080	 0.231843	-33.041740	-173.676700	 12.466280	-47.445880	 9.820880	 82.629410	 80.610770	-82.982770	 2.360572	 32.761940	 0.097704	 0.963886	 7.652114	 0.690181	 1.971046	 2.969762	 3.973437	-9.800439	-3.107195	-4.644300	-94.307310	 58.972550	 174.601000	 25.114480	 42.594100	-26.469150	-2.584703	-1.991503	-22.653520	-1.161913	-26.527720	-8.905988	-4.851650	 19.682540	-2.813012	-3.857639	 21.777140	 2.178483	-4.794903	 5.702813	 0.137753	-0.011075	-5.160149	 0.293860	-11.425370	 1.352796	 1.712714	 89.601960	 61.865690	 179.567000	-18.467930	 52.854270	 5.201199	-2.865631	-3.599064	 16.169310	-5.714198	-9.886893	-0.369561	 6.248636	 21.838740	-0.599566	 2.204465	 41.985850	-7.275238	 1.170697	 21.377840	 3.254987
-0.060546	-2.294944	 1.198983	 6.578483	 0.490616	-4.277137	-9.077342	-12.035390	-169.511300	 1.640037	-37.155530	 0.777600	 47.523750	 80.583780	-51.970220	-2.361726	 32.828200	-0.097682	 0.698156	-34.571020	-172.725400	 12.269350	-43.970920	 9.125943	 106.969900	 77.146880	-108.502800	 2.356777	 33.318570	 0.110646	 0.795542	 7.173404	 0.866939	 2.018080	 3.150481	 4.050931	-9.888306	-3.014612	-4.642465	-94.438580	 58.899880	 174.332900	 24.328710	 41.175020	-26.720000	-3.302712	-1.880380	-24.909950	-1.178272	-26.813390	-8.341588	-4.834167	 20.051740	-2.821775	-3.835055	 22.062680	 2.155546	-4.778830	 5.891725	 0.126628	 0.011222	-5.238778	 0.332955	-11.477490	 1.444162	 1.676805	 89.490280	 61.988580	 179.295600	-17.625620	 53.329060	 3.940406	-4.099514	-3.935667	 16.012950	-6.497377	-9.224822	-1.534589	 6.213343	 19.927890	-0.672751	 2.419656	 39.988320	-7.462831	 1.584895	 19.440680	 3.068326
-0.061523	-2.326700	 1.196297	 6.807605	 0.693615	-4.596273	-9.366227	-10.288380	-169.230000	 1.824451	-36.369980	 0.872861	 46.793420	 80.421150	-51.397590	-2.348227	 34.704970	-0.141802	 1.876609	-35.542050	-171.475300	 11.862090	-39.004330	 8.020944	 115.088400	 72.816690	-117.508800	 2.343207	 35.129550	 0.153647	 0.406826	 6.986595	 1.067680	 2.058760	 3.579907	 4.123481	-9.901400	-3.227309	-4.677114	-94.519370	 58.880000	 174.164500	 22.850630	 39.794480	-27.082260	-3.697882	-1.867551	-27.083670	-1.484236	-27.216550	-8.227242	-4.833547	 20.386050	-2.917307	-3.804853	 22.441350	 2.124865	-4.750932	 6.218354	 0.107262	 0.065764	-5.342586	 0.350690	-11.404500	 1.467488	 1.482875	 89.394910	 62.008820	 179.064500	-16.362050	 53.798410	 1.778661	-5.492458	-4.409159	 16.177080	-7.125879	-8.908710	-3.052299	 6.176584	 17.580730	-0.708917	 2.718539	 36.965980	-7.719096	 2.078113	 17.060940	 2.862024
-0.063511	-2.359119	 1.192810	 7.070426	 0.656600	-4.628395	-9.841529	-8.294942	-169.247300	 2.168763	-35.728030	 1.060694	 41.754340	 79.590160	-46.549140	-2.318857	 38.043060	-0.224361	 2.372870	-35.838350	-170.802700	 11.395820	-33.748880	 6.822758	 101.098400	 73.269930	-103.950200	 2.336540	 35.934890	 0.173247	-0.178080	 7.058844	 1.073692	 2.087057	 3.900950	 4.143241	-9.863916	-3.434057	-4.711086	-94.535640	 59.026580	 174.105600	 21.284710	 38.816620	-27.777100	-3.765874	-1.929131	-28.292810	-2.041373	-28.013730	-8.764070	-4.857432	 20.539990	-3.101725	-3.779631	 22.754650	 2.099251	-4.716453	 6.619913	 0.083218	 0.134680	-5.430179	 0.323295	-11.231200	 1.541394	 1.271946	 89.357420	 61.845770	 178.980200	-15.205930	 54.006350	-0.483539	-6.535769	-4.849960	 16.545140	-7.456110	-9.020571	-4.231932	 6.171915	 15.462060	-0.591093	 2.924222	 34.701970	-7.892130	 2.501949	 14.955370	 2.699313
-0.067947	-2.402838	 1.187229	 7.370990	 0.398220	-4.043575	-10.364940	-5.323748	-169.986000	 2.179897	-35.125210	 1.051532	 31.151660	 76.970450	-35.644620	-2.227254	 45.210950	-0.425338	 3.124782	-35.746690	-170.724300	 8.624441	-27.603400	 4.378047	 61.781320	 74.496540	-62.529830	 2.339804	 35.545390	 0.163738	-1.023651	 7.062411	 0.559732	 2.123684	 4.717923	 4.057986	-9.800396	-3.723628	-4.781148	-94.485530	 59.289860	 174.169000	 19.514940	 37.748340	-29.170510	-3.937724	-1.881023	-28.872800	-2.782397	-28.630970	-9.287705	-4.885697	 20.660430	-3.303560	-3.759130	 23.007310	 2.078446	-4.661703	 7.252952	 0.044769	 0.221568	-5.478549	 0.259444	-10.939120	 1.674360	 1.319252	 89.354800	 61.537390	 178.985400	-14.093880	 53.963850	-2.821565	-7.623572	-5.252293	 16.694160	-7.910968	-9.324615	-5.236825	 6.229388	 12.990400	-0.190237	 3.077539	 32.908320	-8.019102	 2.953851	 12.652700	 2.541389
